<mxfile host="app.diagrams.net" modified="2024-04-13T07:49:55.687Z" agent="Mozilla/5.0 (Macintosh; Intel Mac OS X 10_15_7) AppleWebKit/537.36 (KHTML, like Gecko) Chrome/122.0.0.0 Safari/537.36" etag="5u9Sc8U19_E_xf7SsbLN" version="24.2.3" type="github">
  <diagram name="PÃ¡gina-1" id="VOFFcAh0PM4uJODVsz9k">
    <mxGraphModel dx="597" dy="405" grid="0" gridSize="10" guides="1" tooltips="1" connect="1" arrows="1" fold="1" page="0" pageScale="1" pageWidth="827" pageHeight="1169" math="0" shadow="0">
      <root>
        <mxCell id="0" />
        <mxCell id="1" parent="0" />
        <mxCell id="FAMbD6BApVTDTj_tGmKD-76" value="" style="sketch=0;outlineConnect=0;fontColor=#232F3E;gradientColor=none;fillColor=#ED7100;strokeColor=none;dashed=0;verticalLabelPosition=bottom;verticalAlign=top;align=center;html=1;fontSize=12;fontStyle=0;aspect=fixed;pointerEvents=1;shape=mxgraph.aws4.instance2;" vertex="1" parent="1">
          <mxGeometry x="585" y="809.5" width="48" height="48" as="geometry" />
        </mxCell>
        <mxCell id="FAMbD6BApVTDTj_tGmKD-81" value="" style="rounded=0;whiteSpace=wrap;html=1;strokeColor=none;fillColor=#232F3E;" vertex="1" parent="1">
          <mxGeometry x="612" y="787.5" width="39" height="50" as="geometry" />
        </mxCell>
        <mxCell id="FAMbD6BApVTDTj_tGmKD-32" value="" style="sketch=0;outlineConnect=0;fontColor=#232F3E;gradientColor=none;fillColor=#FFFFFF;strokeColor=none;dashed=0;verticalLabelPosition=bottom;verticalAlign=top;align=center;html=1;fontSize=12;fontStyle=0;aspect=fixed;pointerEvents=1;shape=mxgraph.aws4.traditional_server;" vertex="1" parent="1">
          <mxGeometry x="278" y="303" width="45.58" height="79" as="geometry" />
        </mxCell>
        <mxCell id="FAMbD6BApVTDTj_tGmKD-49" value="" style="sketch=0;outlineConnect=0;fontColor=#232F3E;gradientColor=none;fillColor=#ED7100;strokeColor=none;dashed=0;verticalLabelPosition=bottom;verticalAlign=top;align=center;html=1;fontSize=12;fontStyle=0;aspect=fixed;pointerEvents=1;shape=mxgraph.aws4.mac_instance;" vertex="1" parent="1">
          <mxGeometry x="423" y="472" width="48" height="48" as="geometry" />
        </mxCell>
        <mxCell id="FAMbD6BApVTDTj_tGmKD-50" value="" style="sketch=0;outlineConnect=0;fontColor=#232F3E;gradientColor=none;fillColor=#ED7100;strokeColor=none;dashed=0;verticalLabelPosition=bottom;verticalAlign=top;align=center;html=1;fontSize=12;fontStyle=0;aspect=fixed;pointerEvents=1;shape=mxgraph.aws4.t3_instance;" vertex="1" parent="1">
          <mxGeometry x="553" y="472" width="48" height="48" as="geometry" />
        </mxCell>
        <mxCell id="FAMbD6BApVTDTj_tGmKD-51" value="" style="sketch=0;outlineConnect=0;fontColor=#232F3E;gradientColor=none;fillColor=#ED7100;strokeColor=none;dashed=0;verticalLabelPosition=bottom;verticalAlign=top;align=center;html=1;fontSize=12;fontStyle=0;aspect=fixed;pointerEvents=1;shape=mxgraph.aws4.m6g_instance;" vertex="1" parent="1">
          <mxGeometry x="486" y="590" width="48" height="48" as="geometry" />
        </mxCell>
        <mxCell id="FAMbD6BApVTDTj_tGmKD-52" value="" style="sketch=0;outlineConnect=0;fontColor=#232F3E;gradientColor=none;fillColor=#ED7100;strokeColor=none;dashed=0;verticalLabelPosition=bottom;verticalAlign=top;align=center;html=1;fontSize=12;fontStyle=0;aspect=fixed;pointerEvents=1;shape=mxgraph.aws4.t3a_instance;" vertex="1" parent="1">
          <mxGeometry x="553" y="532" width="48" height="48" as="geometry" />
        </mxCell>
        <mxCell id="FAMbD6BApVTDTj_tGmKD-53" value="" style="sketch=0;outlineConnect=0;fontColor=#232F3E;gradientColor=none;fillColor=#ED7100;strokeColor=none;dashed=0;verticalLabelPosition=bottom;verticalAlign=top;align=center;html=1;fontSize=12;fontStyle=0;aspect=fixed;pointerEvents=1;shape=mxgraph.aws4.t4g_instance;" vertex="1" parent="1">
          <mxGeometry x="553" y="592" width="48" height="48" as="geometry" />
        </mxCell>
        <mxCell id="FAMbD6BApVTDTj_tGmKD-54" value="" style="sketch=0;outlineConnect=0;fontColor=#232F3E;gradientColor=none;fillColor=#ED7100;strokeColor=none;dashed=0;verticalLabelPosition=bottom;verticalAlign=top;align=center;html=1;fontSize=12;fontStyle=0;aspect=fixed;pointerEvents=1;shape=mxgraph.aws4.m5_instance;" vertex="1" parent="1">
          <mxGeometry x="486" y="472" width="48" height="48" as="geometry" />
        </mxCell>
        <mxCell id="FAMbD6BApVTDTj_tGmKD-55" value="" style="sketch=0;outlineConnect=0;fontColor=#232F3E;gradientColor=none;fillColor=#ED7100;strokeColor=none;dashed=0;verticalLabelPosition=bottom;verticalAlign=top;align=center;html=1;fontSize=12;fontStyle=0;aspect=fixed;pointerEvents=1;shape=mxgraph.aws4.m5a_instance;" vertex="1" parent="1">
          <mxGeometry x="486" y="534" width="48" height="48" as="geometry" />
        </mxCell>
        <mxCell id="FAMbD6BApVTDTj_tGmKD-56" value="" style="sketch=0;outlineConnect=0;fontColor=#232F3E;gradientColor=none;fillColor=#ED7100;strokeColor=none;dashed=0;verticalLabelPosition=bottom;verticalAlign=top;align=center;html=1;fontSize=12;fontStyle=0;aspect=fixed;pointerEvents=1;shape=mxgraph.aws4.x1_instance2;" vertex="1" parent="1">
          <mxGeometry x="638" y="472" width="48" height="48" as="geometry" />
        </mxCell>
        <mxCell id="FAMbD6BApVTDTj_tGmKD-57" value="" style="sketch=0;outlineConnect=0;fontColor=#232F3E;gradientColor=none;fillColor=#ED7100;strokeColor=none;dashed=0;verticalLabelPosition=bottom;verticalAlign=top;align=center;html=1;fontSize=12;fontStyle=0;aspect=fixed;pointerEvents=1;shape=mxgraph.aws4.x1e_instance;" vertex="1" parent="1">
          <mxGeometry x="638" y="532" width="48" height="48" as="geometry" />
        </mxCell>
        <mxCell id="FAMbD6BApVTDTj_tGmKD-58" value="" style="sketch=0;outlineConnect=0;fontColor=#232F3E;gradientColor=none;fillColor=#ED7100;strokeColor=none;dashed=0;verticalLabelPosition=bottom;verticalAlign=top;align=center;html=1;fontSize=12;fontStyle=0;aspect=fixed;pointerEvents=1;shape=mxgraph.aws4.z1d_instance;" vertex="1" parent="1">
          <mxGeometry x="700" y="472" width="48" height="48" as="geometry" />
        </mxCell>
        <mxCell id="FAMbD6BApVTDTj_tGmKD-60" value="" style="sketch=0;outlineConnect=0;fontColor=#232F3E;gradientColor=none;fillColor=#ED7100;strokeColor=none;dashed=0;verticalLabelPosition=bottom;verticalAlign=top;align=center;html=1;fontSize=12;fontStyle=0;aspect=fixed;pointerEvents=1;shape=mxgraph.aws4.r5a_instance;" vertex="1" parent="1">
          <mxGeometry x="765" y="472" width="48" height="48" as="geometry" />
        </mxCell>
        <mxCell id="FAMbD6BApVTDTj_tGmKD-61" value="" style="sketch=0;outlineConnect=0;fontColor=#232F3E;gradientColor=none;fillColor=#ED7100;strokeColor=none;dashed=0;verticalLabelPosition=bottom;verticalAlign=top;align=center;html=1;fontSize=12;fontStyle=0;aspect=fixed;pointerEvents=1;shape=mxgraph.aws4.r5b_instance;" vertex="1" parent="1">
          <mxGeometry x="765" y="532" width="48" height="48" as="geometry" />
        </mxCell>
        <mxCell id="FAMbD6BApVTDTj_tGmKD-62" value="" style="sketch=0;outlineConnect=0;fontColor=#232F3E;gradientColor=none;fillColor=#ED7100;strokeColor=none;dashed=0;verticalLabelPosition=bottom;verticalAlign=top;align=center;html=1;fontSize=12;fontStyle=0;aspect=fixed;pointerEvents=1;shape=mxgraph.aws4.ec2_r6a_instance;" vertex="1" parent="1">
          <mxGeometry x="765" y="590" width="48" height="48" as="geometry" />
        </mxCell>
        <mxCell id="FAMbD6BApVTDTj_tGmKD-63" value="" style="sketch=0;outlineConnect=0;fontColor=#232F3E;gradientColor=none;fillColor=#ED7100;strokeColor=none;dashed=0;verticalLabelPosition=bottom;verticalAlign=top;align=center;html=1;fontSize=12;fontStyle=0;aspect=fixed;pointerEvents=1;shape=mxgraph.aws4.ec2_r7iz_instance;" vertex="1" parent="1">
          <mxGeometry x="827" y="472" width="48" height="48" as="geometry" />
        </mxCell>
        <mxCell id="FAMbD6BApVTDTj_tGmKD-64" value="" style="sketch=0;outlineConnect=0;fontColor=#232F3E;gradientColor=none;fillColor=#ED7100;strokeColor=none;dashed=0;verticalLabelPosition=bottom;verticalAlign=top;align=center;html=1;fontSize=12;fontStyle=0;aspect=fixed;pointerEvents=1;shape=mxgraph.aws4.ec2_i4i_instance;" vertex="1" parent="1">
          <mxGeometry x="931" y="472" width="48" height="48" as="geometry" />
        </mxCell>
        <mxCell id="FAMbD6BApVTDTj_tGmKD-65" value="" style="sketch=0;outlineConnect=0;fontColor=#232F3E;gradientColor=none;fillColor=#ED7100;strokeColor=none;dashed=0;verticalLabelPosition=bottom;verticalAlign=top;align=center;html=1;fontSize=12;fontStyle=0;aspect=fixed;pointerEvents=1;shape=mxgraph.aws4.ec2_im4gn_instance;" vertex="1" parent="1">
          <mxGeometry x="931" y="531" width="48" height="48" as="geometry" />
        </mxCell>
        <mxCell id="FAMbD6BApVTDTj_tGmKD-66" value="" style="sketch=0;outlineConnect=0;fontColor=#232F3E;gradientColor=none;fillColor=#ED7100;strokeColor=none;dashed=0;verticalLabelPosition=bottom;verticalAlign=top;align=center;html=1;fontSize=12;fontStyle=0;aspect=fixed;pointerEvents=1;shape=mxgraph.aws4.i3en;" vertex="1" parent="1">
          <mxGeometry x="931" y="589" width="48" height="48" as="geometry" />
        </mxCell>
        <mxCell id="FAMbD6BApVTDTj_tGmKD-67" value="" style="sketch=0;outlineConnect=0;fontColor=#232F3E;gradientColor=none;fillColor=#ED7100;strokeColor=none;dashed=0;verticalLabelPosition=bottom;verticalAlign=top;align=center;html=1;fontSize=12;fontStyle=0;aspect=fixed;pointerEvents=1;shape=mxgraph.aws4.ec2_c7g_instance;" vertex="1" parent="1">
          <mxGeometry x="1071" y="587" width="48" height="48" as="geometry" />
        </mxCell>
        <mxCell id="FAMbD6BApVTDTj_tGmKD-68" value="" style="sketch=0;outlineConnect=0;fontColor=#232F3E;gradientColor=none;fillColor=#ED7100;strokeColor=none;dashed=0;verticalLabelPosition=bottom;verticalAlign=top;align=center;html=1;fontSize=12;fontStyle=0;aspect=fixed;pointerEvents=1;shape=mxgraph.aws4.c5d;" vertex="1" parent="1">
          <mxGeometry x="1071" y="531" width="48" height="48" as="geometry" />
        </mxCell>
        <mxCell id="FAMbD6BApVTDTj_tGmKD-69" value="" style="sketch=0;outlineConnect=0;fontColor=#232F3E;gradientColor=none;fillColor=#ED7100;strokeColor=none;dashed=0;verticalLabelPosition=bottom;verticalAlign=top;align=center;html=1;fontSize=12;fontStyle=0;aspect=fixed;pointerEvents=1;shape=mxgraph.aws4.c4_instance;" vertex="1" parent="1">
          <mxGeometry x="1071" y="475" width="48" height="48" as="geometry" />
        </mxCell>
        <mxCell id="FAMbD6BApVTDTj_tGmKD-70" value="" style="sketch=0;outlineConnect=0;fontColor=#232F3E;gradientColor=none;fillColor=#ED7100;strokeColor=none;dashed=0;verticalLabelPosition=bottom;verticalAlign=top;align=center;html=1;fontSize=12;fontStyle=0;aspect=fixed;pointerEvents=1;shape=mxgraph.aws4.p4_instance;" vertex="1" parent="1">
          <mxGeometry x="1214" y="587" width="48" height="48" as="geometry" />
        </mxCell>
        <mxCell id="FAMbD6BApVTDTj_tGmKD-71" value="" style="sketch=0;outlineConnect=0;fontColor=#232F3E;gradientColor=none;fillColor=#ED7100;strokeColor=none;dashed=0;verticalLabelPosition=bottom;verticalAlign=top;align=center;html=1;fontSize=12;fontStyle=0;aspect=fixed;pointerEvents=1;shape=mxgraph.aws4.p2_instance;" vertex="1" parent="1">
          <mxGeometry x="1214" y="475" width="48" height="48" as="geometry" />
        </mxCell>
        <mxCell id="FAMbD6BApVTDTj_tGmKD-72" value="" style="sketch=0;outlineConnect=0;fontColor=#232F3E;gradientColor=none;fillColor=#ED7100;strokeColor=none;dashed=0;verticalLabelPosition=bottom;verticalAlign=top;align=center;html=1;fontSize=12;fontStyle=0;aspect=fixed;pointerEvents=1;shape=mxgraph.aws4.p3_instance;" vertex="1" parent="1">
          <mxGeometry x="1214" y="532" width="48" height="48" as="geometry" />
        </mxCell>
        <mxCell id="FAMbD6BApVTDTj_tGmKD-77" value="" style="sketch=0;outlineConnect=0;fontColor=#232F3E;gradientColor=none;fillColor=#FF0000;strokeColor=none;dashed=0;verticalLabelPosition=bottom;verticalAlign=top;align=center;html=1;fontSize=12;fontStyle=0;aspect=fixed;pointerEvents=1;shape=mxgraph.aws4.data_encryption_key;" vertex="1" parent="1">
          <mxGeometry x="612" y="789.5" width="38.15" height="48" as="geometry" />
        </mxCell>
        <mxCell id="FAMbD6BApVTDTj_tGmKD-82" value="" style="sketch=0;outlineConnect=0;fontColor=#232F3E;gradientColor=none;fillColor=#ED7100;strokeColor=none;dashed=0;verticalLabelPosition=bottom;verticalAlign=top;align=center;html=1;fontSize=12;fontStyle=0;aspect=fixed;pointerEvents=1;shape=mxgraph.aws4.instance2;" vertex="1" parent="1">
          <mxGeometry x="668" y="811.5" width="48" height="48" as="geometry" />
        </mxCell>
        <mxCell id="FAMbD6BApVTDTj_tGmKD-83" value="" style="rounded=0;whiteSpace=wrap;html=1;strokeColor=none;fillColor=#232F3E;" vertex="1" parent="1">
          <mxGeometry x="695" y="789.5" width="39" height="50" as="geometry" />
        </mxCell>
        <mxCell id="FAMbD6BApVTDTj_tGmKD-84" value="" style="sketch=0;outlineConnect=0;fontColor=#232F3E;gradientColor=none;fillColor=#00FFFF;strokeColor=none;dashed=0;verticalLabelPosition=bottom;verticalAlign=top;align=center;html=1;fontSize=12;fontStyle=0;aspect=fixed;pointerEvents=1;shape=mxgraph.aws4.data_encryption_key;" vertex="1" parent="1">
          <mxGeometry x="695" y="791.5" width="38.15" height="48" as="geometry" />
        </mxCell>
        <mxCell id="FAMbD6BApVTDTj_tGmKD-85" value="" style="points=[[0,0.5,0],[0.24,0,0],[0.5,0.28,0],[0.995,0.475,0],[0.5,0.72,0],[0.24,1,0]];verticalLabelPosition=bottom;sketch=0;html=1;verticalAlign=top;aspect=fixed;align=center;pointerEvents=1;shape=mxgraph.cisco19.key;fillColor=#FF0000;strokeColor=none;" vertex="1" parent="1">
          <mxGeometry x="423" y="769" width="50" height="22.5" as="geometry" />
        </mxCell>
        <mxCell id="FAMbD6BApVTDTj_tGmKD-86" value="&lt;font style=&quot;&quot; color=&quot;#ffffff&quot;&gt;VPC&lt;/font&gt;" style="points=[[0,0],[0.25,0],[0.5,0],[0.75,0],[1,0],[1,0.25],[1,0.5],[1,0.75],[1,1],[0.75,1],[0.5,1],[0.25,1],[0,1],[0,0.75],[0,0.5],[0,0.25]];outlineConnect=0;gradientColor=none;html=1;whiteSpace=wrap;fontSize=12;fontStyle=0;container=1;pointerEvents=0;collapsible=0;recursiveResize=0;shape=mxgraph.aws4.group;grIcon=mxgraph.aws4.group_vpc2;strokeColor=#8C4FFF;fillColor=none;verticalAlign=top;align=left;spacingLeft=30;fontColor=#AAB7B8;dashed=0;" vertex="1" parent="1">
          <mxGeometry x="936" y="720.5" width="326" height="190" as="geometry" />
        </mxCell>
        <mxCell id="FAMbD6BApVTDTj_tGmKD-109" value="&lt;font style=&quot;font-size: 11px;&quot;&gt;Private subnet&lt;/font&gt;" style="points=[[0,0],[0.25,0],[0.5,0],[0.75,0],[1,0],[1,0.25],[1,0.5],[1,0.75],[1,1],[0.75,1],[0.5,1],[0.25,1],[0,1],[0,0.75],[0,0.5],[0,0.25]];outlineConnect=0;gradientColor=none;html=1;whiteSpace=wrap;fontSize=12;fontStyle=0;container=1;pointerEvents=0;collapsible=0;recursiveResize=0;shape=mxgraph.aws4.group;grIcon=mxgraph.aws4.group_security_group;grStroke=0;strokeColor=#00A4A6;fillColor=#E6F6F7;verticalAlign=top;align=left;spacingLeft=30;fontColor=#147EBA;dashed=0;" vertex="1" parent="FAMbD6BApVTDTj_tGmKD-86">
          <mxGeometry x="179.5" y="41" width="130" height="134" as="geometry" />
        </mxCell>
        <mxCell id="FAMbD6BApVTDTj_tGmKD-87" value="&lt;font style=&quot;font-size: 11px;&quot;&gt;Public subnet&lt;/font&gt;" style="points=[[0,0],[0.25,0],[0.5,0],[0.75,0],[1,0],[1,0.25],[1,0.5],[1,0.75],[1,1],[0.75,1],[0.5,1],[0.25,1],[0,1],[0,0.75],[0,0.5],[0,0.25]];outlineConnect=0;gradientColor=none;html=1;whiteSpace=wrap;fontSize=12;fontStyle=0;container=1;pointerEvents=0;collapsible=0;recursiveResize=0;shape=mxgraph.aws4.group;grIcon=mxgraph.aws4.group_security_group;grStroke=0;strokeColor=#7AA116;fillColor=#F2F6E8;verticalAlign=top;align=left;spacingLeft=30;fontColor=#248814;dashed=0;" vertex="1" parent="FAMbD6BApVTDTj_tGmKD-86">
          <mxGeometry x="17" y="41" width="130" height="134" as="geometry" />
        </mxCell>
        <mxCell id="FAMbD6BApVTDTj_tGmKD-91" value="" style="whiteSpace=wrap;html=1;aspect=fixed;fillColor=none;strokeColor=#FF0000;" vertex="1" parent="FAMbD6BApVTDTj_tGmKD-87">
          <mxGeometry x="23" y="39" width="83" height="83" as="geometry" />
        </mxCell>
        <mxCell id="FAMbD6BApVTDTj_tGmKD-89" value="" style="sketch=0;points=[[0,0,0],[0.25,0,0],[0.5,0,0],[0.75,0,0],[1,0,0],[0,1,0],[0.25,1,0],[0.5,1,0],[0.75,1,0],[1,1,0],[0,0.25,0],[0,0.5,0],[0,0.75,0],[1,0.25,0],[1,0.5,0],[1,0.75,0]];outlineConnect=0;fontColor=#232F3E;fillColor=#ED7100;strokeColor=#ffffff;dashed=0;verticalLabelPosition=bottom;verticalAlign=top;align=center;html=1;fontSize=12;fontStyle=0;aspect=fixed;shape=mxgraph.aws4.resourceIcon;resIcon=mxgraph.aws4.ec2;" vertex="1" parent="FAMbD6BApVTDTj_tGmKD-87">
          <mxGeometry x="40" y="52" width="50" height="50" as="geometry" />
        </mxCell>
        <mxCell id="FAMbD6BApVTDTj_tGmKD-94" value="&lt;b&gt;EC2&lt;/b&gt;" style="text;html=1;align=center;verticalAlign=middle;whiteSpace=wrap;rounded=0;" vertex="1" parent="FAMbD6BApVTDTj_tGmKD-87">
          <mxGeometry x="35" y="95" width="60" height="30" as="geometry" />
        </mxCell>
        <mxCell id="FAMbD6BApVTDTj_tGmKD-101" value="&lt;font color=&quot;#ff0000&quot; style=&quot;font-size: 8px;&quot;&gt;Security Group&lt;/font&gt;" style="text;html=1;align=center;verticalAlign=middle;whiteSpace=wrap;rounded=0;" vertex="1" parent="FAMbD6BApVTDTj_tGmKD-87">
          <mxGeometry x="16" y="14" width="98" height="30" as="geometry" />
        </mxCell>
        <mxCell id="FAMbD6BApVTDTj_tGmKD-105" value="" style="whiteSpace=wrap;html=1;aspect=fixed;fillColor=none;strokeColor=#FF0000;" vertex="1" parent="FAMbD6BApVTDTj_tGmKD-86">
          <mxGeometry x="203" y="80" width="83" height="83" as="geometry" />
        </mxCell>
        <mxCell id="FAMbD6BApVTDTj_tGmKD-106" value="" style="sketch=0;points=[[0,0,0],[0.25,0,0],[0.5,0,0],[0.75,0,0],[1,0,0],[0,1,0],[0.25,1,0],[0.5,1,0],[0.75,1,0],[1,1,0],[0,0.25,0],[0,0.5,0],[0,0.75,0],[1,0.25,0],[1,0.5,0],[1,0.75,0]];outlineConnect=0;fontColor=#232F3E;fillColor=#ED7100;strokeColor=#ffffff;dashed=0;verticalLabelPosition=bottom;verticalAlign=top;align=center;html=1;fontSize=12;fontStyle=0;aspect=fixed;shape=mxgraph.aws4.resourceIcon;resIcon=mxgraph.aws4.ec2;" vertex="1" parent="FAMbD6BApVTDTj_tGmKD-86">
          <mxGeometry x="220" y="93" width="50" height="50" as="geometry" />
        </mxCell>
        <mxCell id="FAMbD6BApVTDTj_tGmKD-107" value="&lt;b&gt;EC2&lt;/b&gt;" style="text;html=1;align=center;verticalAlign=middle;whiteSpace=wrap;rounded=0;" vertex="1" parent="FAMbD6BApVTDTj_tGmKD-86">
          <mxGeometry x="215" y="136" width="60" height="30" as="geometry" />
        </mxCell>
        <mxCell id="FAMbD6BApVTDTj_tGmKD-108" value="&lt;font color=&quot;#ff0000&quot; style=&quot;font-size: 8px;&quot;&gt;Security Group&lt;/font&gt;" style="text;html=1;align=center;verticalAlign=middle;whiteSpace=wrap;rounded=0;" vertex="1" parent="FAMbD6BApVTDTj_tGmKD-86">
          <mxGeometry x="196" y="55" width="98" height="30" as="geometry" />
        </mxCell>
        <mxCell id="FAMbD6BApVTDTj_tGmKD-110" value="" style="sketch=0;outlineConnect=0;fontColor=#232F3E;gradientColor=none;fillColor=#ED7100;strokeColor=none;dashed=0;verticalLabelPosition=bottom;verticalAlign=top;align=center;html=1;fontSize=12;fontStyle=0;aspect=fixed;pointerEvents=1;shape=mxgraph.aws4.instance2;" vertex="1" parent="1">
          <mxGeometry x="555.5" y="1002" width="57" height="57" as="geometry" />
        </mxCell>
        <mxCell id="FAMbD6BApVTDTj_tGmKD-116" value="" style="points=[[0,0],[0.25,0],[0.5,0],[0.75,0],[1,0],[1,0.25],[1,0.5],[1,0.75],[1,1],[0.75,1],[0.5,1],[0.25,1],[0,1],[0,0.75],[0,0.5],[0,0.25]];outlineConnect=0;gradientColor=none;html=1;whiteSpace=wrap;fontSize=12;fontStyle=0;container=1;pointerEvents=0;collapsible=0;recursiveResize=0;shape=mxgraph.aws4.group;grIcon=mxgraph.aws4.group_ec2_instance_contents;strokeColor=#D86613;fillColor=none;verticalAlign=top;align=left;spacingLeft=30;fontColor=#D86613;dashed=0;" vertex="1" parent="1">
          <mxGeometry x="561.25" y="1092" width="45.5" height="70" as="geometry" />
        </mxCell>
        <mxCell id="FAMbD6BApVTDTj_tGmKD-121" value="" style="shape=image;verticalLabelPosition=bottom;labelBackgroundColor=default;verticalAlign=top;aspect=fixed;imageAspect=0;image=https://cdn-icons-png.flaticon.com/512/3056/3056329.png;" vertex="1" parent="FAMbD6BApVTDTj_tGmKD-116">
          <mxGeometry x="3.450000000000001" y="30.9" width="36.1" height="36.1" as="geometry" />
        </mxCell>
        <mxCell id="FAMbD6BApVTDTj_tGmKD-117" value="" style="sketch=0;outlineConnect=0;fontColor=#232F3E;gradientColor=none;fillColor=#ED7100;strokeColor=none;dashed=0;verticalLabelPosition=bottom;verticalAlign=top;align=center;html=1;fontSize=12;fontStyle=0;aspect=fixed;pointerEvents=1;shape=mxgraph.aws4.instance2;" vertex="1" parent="1">
          <mxGeometry x="676.15" y="1002" width="57" height="57" as="geometry" />
        </mxCell>
        <mxCell id="FAMbD6BApVTDTj_tGmKD-119" value="" style="sketch=0;outlineConnect=0;fontColor=#232F3E;gradientColor=none;fillColor=#ED7100;strokeColor=none;dashed=0;verticalLabelPosition=bottom;verticalAlign=top;align=center;html=1;fontSize=12;fontStyle=0;aspect=fixed;pointerEvents=1;shape=mxgraph.aws4.instance2;" vertex="1" parent="1">
          <mxGeometry x="807" y="1002" width="57" height="57" as="geometry" />
        </mxCell>
        <mxCell id="FAMbD6BApVTDTj_tGmKD-122" value="" style="points=[[0,0],[0.25,0],[0.5,0],[0.75,0],[1,0],[1,0.25],[1,0.5],[1,0.75],[1,1],[0.75,1],[0.5,1],[0.25,1],[0,1],[0,0.75],[0,0.5],[0,0.25]];outlineConnect=0;gradientColor=none;html=1;whiteSpace=wrap;fontSize=12;fontStyle=0;container=1;pointerEvents=0;collapsible=0;recursiveResize=0;shape=mxgraph.aws4.group;grIcon=mxgraph.aws4.group_ec2_instance_contents;strokeColor=#D86613;fillColor=none;verticalAlign=top;align=left;spacingLeft=30;fontColor=#D86613;dashed=0;" vertex="1" parent="1">
          <mxGeometry x="681.9" y="1092" width="45.5" height="70" as="geometry" />
        </mxCell>
        <mxCell id="FAMbD6BApVTDTj_tGmKD-123" value="" style="shape=image;verticalLabelPosition=bottom;labelBackgroundColor=default;verticalAlign=top;aspect=fixed;imageAspect=0;image=https://cdn-icons-png.flaticon.com/512/3056/3056329.png;" vertex="1" parent="FAMbD6BApVTDTj_tGmKD-122">
          <mxGeometry x="3.450000000000001" y="30.9" width="36.1" height="36.1" as="geometry" />
        </mxCell>
        <mxCell id="FAMbD6BApVTDTj_tGmKD-124" value="" style="points=[[0,0],[0.25,0],[0.5,0],[0.75,0],[1,0],[1,0.25],[1,0.5],[1,0.75],[1,1],[0.75,1],[0.5,1],[0.25,1],[0,1],[0,0.75],[0,0.5],[0,0.25]];outlineConnect=0;gradientColor=none;html=1;whiteSpace=wrap;fontSize=12;fontStyle=0;container=1;pointerEvents=0;collapsible=0;recursiveResize=0;shape=mxgraph.aws4.group;grIcon=mxgraph.aws4.group_ec2_instance_contents;strokeColor=#D86613;fillColor=none;verticalAlign=top;align=left;spacingLeft=30;fontColor=#D86613;dashed=0;" vertex="1" parent="1">
          <mxGeometry x="812.75" y="1092" width="45.5" height="70" as="geometry" />
        </mxCell>
        <mxCell id="FAMbD6BApVTDTj_tGmKD-125" value="" style="shape=image;verticalLabelPosition=bottom;labelBackgroundColor=default;verticalAlign=top;aspect=fixed;imageAspect=0;image=https://cdn-icons-png.flaticon.com/512/3056/3056329.png;" vertex="1" parent="FAMbD6BApVTDTj_tGmKD-124">
          <mxGeometry x="3.450000000000001" y="30.9" width="36.1" height="36.1" as="geometry" />
        </mxCell>
        <mxCell id="FAMbD6BApVTDTj_tGmKD-127" value="" style="sketch=0;points=[[0,0,0],[0.25,0,0],[0.5,0,0],[0.75,0,0],[1,0,0],[0,1,0],[0.25,1,0],[0.5,1,0],[0.75,1,0],[1,1,0],[0,0.25,0],[0,0.5,0],[0,0.75,0],[1,0.25,0],[1,0.5,0],[1,0.75,0]];outlineConnect=0;fontColor=#232F3E;fillColor=#ED7100;strokeColor=#ffffff;dashed=0;verticalLabelPosition=bottom;verticalAlign=top;align=center;html=1;fontSize=12;fontStyle=0;aspect=fixed;shape=mxgraph.aws4.resourceIcon;resIcon=mxgraph.aws4.ec2;" vertex="1" parent="1">
          <mxGeometry x="649.4" y="1365" width="78" height="78" as="geometry" />
        </mxCell>
        <mxCell id="FAMbD6BApVTDTj_tGmKD-131" value="" style="sketch=0;outlineConnect=0;fontColor=#232F3E;gradientColor=none;fillColor=#ED7100;strokeColor=none;dashed=0;verticalLabelPosition=bottom;verticalAlign=top;align=center;html=1;fontSize=12;fontStyle=0;aspect=fixed;pointerEvents=1;shape=mxgraph.aws4.instance2;" vertex="1" parent="1">
          <mxGeometry x="781.5" y="1272" width="43" height="43" as="geometry" />
        </mxCell>
        <mxCell id="FAMbD6BApVTDTj_tGmKD-132" value="" style="sketch=0;outlineConnect=0;fontColor=#232F3E;gradientColor=none;fillColor=#ED7100;strokeColor=none;dashed=0;verticalLabelPosition=bottom;verticalAlign=top;align=center;html=1;fontSize=12;fontStyle=0;aspect=fixed;pointerEvents=1;shape=mxgraph.aws4.instance2;" vertex="1" parent="1">
          <mxGeometry x="510" y="1349" width="48" height="48" as="geometry" />
        </mxCell>
      </root>
    </mxGraphModel>
  </diagram>
</mxfile>
